<svg width="172" height="73" viewBox="0 0 172 73" fill="none" xmlns="http://www.w3.org/2000/svg">
<path d="M103 68V73H105.036L106.493 71.5775L103 68ZM171.5 6.05976C171.533 3.29853 169.321 1.03336 166.56 1.00036L121.563 0.462547C118.802 0.429544 116.537 2.64121 116.504 5.40243C116.471 8.16366 118.682 10.4288 121.443 10.4618L161.441 10.9399L160.963 50.937C160.93 53.6983 163.141 55.9634 165.902 55.9964C168.664 56.0294 170.929 53.8178 170.962 51.0565L171.5 6.05976ZM103 68L106.493 71.5775L169.993 9.57754L166.5 6L163.007 2.42246L99.507 64.4225L103 68ZM0 68V73H51.5V68V63H0V68ZM51.5 68V73H103V68V63H51.5V68Z" fill="black"/>
</svg>
