<svg width="90" height="55" viewBox="0 0 90 55" fill="none" xmlns="http://www.w3.org/2000/svg">
<path d="M10.9 20L9.18 15.58H3.52L1.82 20H0L5.58 5.66H7.2L12.76 20H10.9ZM7.04 9.66C7 9.55333 6.93333 9.36 6.84 9.08C6.74667 8.8 6.65333 8.51333 6.56 8.22C6.48 7.91333 6.41333 7.68 6.36 7.52C6.29333 7.78667 6.22 8.06 6.14 8.34C6.07333 8.60667 6 8.85333 5.92 9.08C5.85333 9.30667 5.79333 9.5 5.74 9.66L4.12 13.98H8.64L7.04 9.66ZM18.1814 18.224C18.1814 18.64 18.0774 18.988 17.8694 19.268C17.6614 19.548 17.3654 19.76 16.9814 19.904C16.5974 20.048 16.1414 20.12 15.6134 20.12C15.1654 20.12 14.7774 20.084 14.4494 20.012C14.1294 19.94 13.8454 19.84 13.5974 19.712V18.752C13.8534 18.88 14.1614 19 14.5214 19.112C14.8894 19.216 15.2614 19.268 15.6374 19.268C16.1734 19.268 16.5614 19.184 16.8014 19.016C17.0414 18.84 17.1614 18.608 17.1614 18.32C17.1614 18.16 17.1174 18.016 17.0294 17.888C16.9414 17.76 16.7814 17.632 16.5494 17.504C16.3254 17.376 16.0014 17.232 15.5774 17.072C15.1614 16.912 14.8054 16.752 14.5094 16.592C14.2134 16.432 13.9854 16.24 13.8254 16.016C13.6654 15.792 13.5854 15.504 13.5854 15.152C13.5854 14.608 13.8054 14.188 14.2454 13.892C14.6934 13.596 15.2774 13.448 15.9974 13.448C16.3894 13.448 16.7534 13.488 17.0894 13.568C17.4334 13.64 17.7534 13.744 18.0494 13.88L17.6894 14.72C17.5134 14.64 17.3254 14.572 17.1254 14.516C16.9334 14.452 16.7374 14.404 16.5374 14.372C16.3374 14.332 16.1334 14.312 15.9254 14.312C15.4934 14.312 15.1614 14.384 14.9294 14.528C14.7054 14.664 14.5934 14.852 14.5934 15.092C14.5934 15.268 14.6454 15.42 14.7494 15.548C14.8534 15.668 15.0254 15.788 15.2654 15.908C15.5134 16.02 15.8414 16.156 16.2494 16.316C16.6574 16.468 17.0054 16.624 17.2934 16.784C17.5814 16.944 17.8014 17.14 17.9534 17.372C18.1054 17.596 18.1814 17.88 18.1814 18.224ZM20.9116 13.556C20.9116 13.708 20.9036 13.864 20.8876 14.024C20.8796 14.184 20.8676 14.328 20.8516 14.456H20.9236C21.0596 14.232 21.2316 14.048 21.4396 13.904C21.6476 13.76 21.8796 13.652 22.1356 13.58C22.3916 13.5 22.6556 13.46 22.9276 13.46C23.4476 13.46 23.8796 13.544 24.2236 13.712C24.5756 13.872 24.8396 14.124 25.0156 14.468C25.1916 14.812 25.2796 15.26 25.2796 15.812V20H24.2356V15.884C24.2356 15.364 24.1196 14.976 23.8876 14.72C23.6556 14.464 23.2916 14.336 22.7956 14.336C22.3156 14.336 21.9396 14.428 21.6676 14.612C21.3956 14.788 21.1996 15.052 21.0796 15.404C20.9676 15.748 20.9116 16.172 20.9116 16.676V20H19.8556V10.88H20.9116V13.556ZM28.4496 20H27.3936V10.88H28.4496V20ZM33.0913 13.448C33.6433 13.448 34.1153 13.568 34.5073 13.808C34.9073 14.048 35.2113 14.388 35.4193 14.828C35.6353 15.26 35.7433 15.768 35.7433 16.352V16.988H31.3393C31.3553 17.716 31.5393 18.272 31.8913 18.656C32.2513 19.032 32.7513 19.22 33.3913 19.22C33.7993 19.22 34.1593 19.184 34.4713 19.112C34.7913 19.032 35.1193 18.92 35.4553 18.776V19.7C35.1273 19.844 34.8033 19.948 34.4833 20.012C34.1633 20.084 33.7833 20.12 33.3433 20.12C32.7353 20.12 32.1953 19.996 31.7233 19.748C31.2593 19.5 30.8953 19.132 30.6313 18.644C30.3753 18.148 30.2473 17.544 30.2473 16.832C30.2473 16.128 30.3633 15.524 30.5953 15.02C30.8353 14.516 31.1673 14.128 31.5913 13.856C32.0233 13.584 32.5233 13.448 33.0913 13.448ZM33.0793 14.312C32.5753 14.312 32.1753 14.476 31.8793 14.804C31.5913 15.124 31.4193 15.572 31.3633 16.148H34.6393C34.6393 15.78 34.5833 15.46 34.4713 15.188C34.3593 14.916 34.1873 14.704 33.9553 14.552C33.7313 14.392 33.4393 14.312 33.0793 14.312ZM36.2584 13.568H37.3864L38.7784 17.228C38.8584 17.444 38.9304 17.652 38.9944 17.852C39.0664 18.052 39.1304 18.248 39.1864 18.44C39.2424 18.624 39.2864 18.804 39.3184 18.98H39.3664C39.4144 18.78 39.4904 18.52 39.5944 18.2C39.6984 17.872 39.8064 17.544 39.9184 17.216L41.2264 13.568H42.3664L39.5944 20.888C39.4424 21.288 39.2624 21.636 39.0544 21.932C38.8544 22.236 38.6064 22.468 38.3104 22.628C38.0224 22.796 37.6704 22.88 37.2544 22.88C37.0624 22.88 36.8944 22.868 36.7504 22.844C36.6064 22.828 36.4824 22.808 36.3784 22.784V21.944C36.4664 21.96 36.5704 21.976 36.6904 21.992C36.8184 22.008 36.9504 22.016 37.0864 22.016C37.3344 22.016 37.5464 21.968 37.7224 21.872C37.9064 21.784 38.0624 21.652 38.1904 21.476C38.3184 21.308 38.4264 21.108 38.5144 20.876L38.8504 20.024L36.2584 13.568Z" fill="black"/>
<path d="M10.1172 37.4805H6.07422V50H4.43359V37.4805H0.400391V35.9961H10.1172V37.4805Z" fill="#0A4A0C"/>
<path d="M16.4832 47.2402H12.2469C12.2625 47.9082 12.4422 48.4238 12.7859 48.7871C13.1297 49.1504 13.6023 49.332 14.2039 49.332C14.8797 49.332 15.5008 49.1094 16.0672 48.6641V49.5664C15.5398 49.9492 14.8426 50.1406 13.9754 50.1406C13.1277 50.1406 12.4617 49.8691 11.9773 49.3262C11.493 48.7793 11.2508 48.0117 11.2508 47.0234C11.2508 46.0898 11.5145 45.3301 12.0418 44.7441C12.573 44.1543 13.2312 43.8594 14.0164 43.8594C14.8016 43.8594 15.409 44.1133 15.8387 44.6211C16.2684 45.1289 16.4832 45.834 16.4832 46.7363V47.2402ZM15.4988 46.4258C15.4949 45.8711 15.3602 45.4395 15.0945 45.1309C14.8328 44.8223 14.4676 44.668 13.9988 44.668C13.5457 44.668 13.1609 44.8301 12.8445 45.1543C12.5281 45.4785 12.3328 45.9023 12.2586 46.4258H15.4988ZM26.5817 50H25.6208V46.5547C25.6208 45.8906 25.5173 45.4102 25.3102 45.1133C25.1071 44.8164 24.7634 44.668 24.279 44.668C23.8688 44.668 23.5192 44.8555 23.2302 45.2305C22.945 45.6055 22.8024 46.0547 22.8024 46.5781V50H21.8415V46.4375C21.8415 45.2578 21.3864 44.668 20.4762 44.668C20.0544 44.668 19.7067 44.8457 19.4333 45.2012C19.1598 45.5527 19.0231 46.0117 19.0231 46.5781V50H18.0622V44H19.0231V44.9492H19.0466C19.4723 44.2227 20.0934 43.8594 20.9098 43.8594C21.32 43.8594 21.6774 43.9746 21.9821 44.2051C22.2868 44.4316 22.4958 44.7305 22.6091 45.1016C23.0544 44.2734 23.7184 43.8594 24.6012 43.8594C25.9216 43.8594 26.5817 44.6738 26.5817 46.3027V50ZM29.5025 49.1328H29.4791V50H28.5181V41.1172H29.4791V45.0547H29.5025C29.9752 44.2578 30.6666 43.8594 31.5767 43.8594C32.3463 43.8594 32.9478 44.1289 33.3814 44.668C33.8189 45.2031 34.0377 45.9219 34.0377 46.8242C34.0377 47.8281 33.7935 48.6328 33.3052 49.2383C32.817 49.8398 32.149 50.1406 31.3013 50.1406C30.5084 50.1406 29.9088 49.8047 29.5025 49.1328ZM29.4791 46.7129V47.5508C29.4791 48.0469 29.6392 48.4688 29.9595 48.8164C30.2838 49.1602 30.6939 49.332 31.19 49.332C31.772 49.332 32.2271 49.1094 32.5552 48.6641C32.8873 48.2188 33.0533 47.5996 33.0533 46.8066C33.0533 46.1387 32.899 45.6152 32.5904 45.2363C32.2818 44.8574 31.8638 44.668 31.3365 44.668C30.7779 44.668 30.3287 44.8633 29.9888 45.2539C29.649 45.6406 29.4791 46.127 29.4791 46.7129ZM39.9877 50H39.0268V49.0625H39.0034C38.5854 49.7812 37.9702 50.1406 37.1577 50.1406C36.56 50.1406 36.0913 49.9824 35.7514 49.666C35.4155 49.3496 35.2475 48.9297 35.2475 48.4062C35.2475 47.2852 35.9077 46.6328 37.228 46.4492L39.0268 46.1973C39.0268 45.1777 38.6147 44.668 37.7905 44.668C37.0678 44.668 36.4155 44.9141 35.8334 45.4062V44.4219C36.4233 44.0469 37.103 43.8594 37.8725 43.8594C39.2827 43.8594 39.9877 44.6055 39.9877 46.0977V50ZM39.0268 46.9648L37.5795 47.1641C37.1342 47.2266 36.7983 47.3379 36.5717 47.498C36.3452 47.6543 36.2319 47.9336 36.2319 48.3359C36.2319 48.6289 36.3354 48.8691 36.5424 49.0566C36.7534 49.2402 37.0327 49.332 37.3803 49.332C37.8569 49.332 38.2495 49.166 38.558 48.834C38.8705 48.498 39.0268 48.0742 39.0268 47.5625V46.9648Z" fill="black"/>
<rect y="27" width="90" height="1" fill="url(#paint0_linear_141_9)"/>
<defs>
<linearGradient id="paint0_linear_141_9" x1="0.423491" y1="33.6591" x2="89.5765" y2="21.3409" gradientUnits="userSpaceOnUse">
<stop stop-color="#0A4A0C"/>
<stop offset="1" stop-color="#F2FFEF"/>
</linearGradient>
</defs>
</svg>
