<svg width="800" height="800" viewBox="0 0 800 800" fill="none" xmlns="http://www.w3.org/2000/svg">
<g clip-path="url(#clip0_146_18)">
<path d="M0 400C0 620.559 179.441 800 400 800V0C179.441 0 0 179.441 0 400Z" fill="#7EA47E" fill-opacity="0.48"/>
<path d="M400 0V800C620.559 800 800 620.559 800 400C800 179.441 620.559 0 400 0Z" fill="#7EA47E" fill-opacity="0.48"/>
<path d="M425.71 253.077C418.888 246.258 409.643 242.425 399.996 242.425C390.351 242.425 381.101 246.258 374.282 253.077L180.348 447.016C166.149 461.217 166.149 484.241 180.351 498.444C194.549 512.642 217.573 512.642 231.779 498.441L399.999 330.216L568.232 498.444C575.327 505.539 584.635 509.091 593.941 509.091C603.248 509.091 612.555 505.539 619.652 498.439C633.854 484.238 633.854 461.214 619.652 447.011L425.71 253.077Z" fill="#185246"/>
</g>
<defs>
<clipPath id="clip0_146_18">
<rect width="800" height="800" fill="white"/>
</clipPath>
</defs>
</svg>
